# xmcd CD database file
#
# Track frame offsets:
#	150
#	11283
#	22289
#	35461
#	49068
#	64744
#	80722
#	95282
#	109746
#	127061
#	144382
#	154039
#
# Disc length: 2222 seconds
#
# Revision: 0
# Processed by: cddbd v1.5.2PL0 Copyright (c) Steve Scherf et al.
# Submitted via: CDex 1.70beta2
#
DISCID=9c08ac0c
DTITLE=Tony Evans  - Merry Christmas
DYEAR=1984
DGENRE=Ballroom
TTITLE0=Tony Evans - Sleigh Ride -49 BPM - QS
TTITLE1=Tony Evans - Santa Claus Is Coming To Town - 48 BPM - QS
TTITLE2=Tony Evans - White Christmas -30 BPM - FT
TTITLE3=Tony Evans - Winter Wonderland - 29 BPM - FT
TTITLE4=Tony Evans - Silent NIght - 30 BPM - Waltz
TTITLE5=Tony Evans - When A Child Is Born - 30 BPM - Waltz
TTITLE6=Tony Evans - Rudolph The Red Nose Reindeer - 31 BPM - Cha Cha
TTITLE7=Tony Evans - I Saw Mommy Kissing Santa Clause - 31 BPM - Cha Cha
TTITLE8=Tony Evans - The Christmas Song - 27 BPM - Rumba
TTITLE9=Tony Evans - Merry Christmas Darling - 27 BPM - Rumba
TTITLE10=Tony Evans - Jingle Bells - 58 BPM - Samba
TTITLE11=Tony Evans - Rocking Round The Christmas Tree - 44 BPM - Jive
EXTD=YEAR: 1984
EXTT0=
EXTT1=
EXTT2=
EXTT3=
EXTT4=
EXTT5=
EXTT6=
EXTT7=
EXTT8=
EXTT9=
EXTT10=
EXTT11=
PLAYORDER=
